<?xml version="1.0" encoding="UTF-8"?>
<svg id="Layer_1" data-name="Layer 1" xmlns="http://www.w3.org/2000/svg" viewBox="0 0 373.27 249.31">
  <defs>
    <style>
      .cls-1 {
        fill: #f39c12;
      }

      .cls-2 {
        fill: #E5E7EB; /* Light color for dark mode */
      }

      .cls-3 {
        fill: #1fbbd2;
      }
    </style>
  </defs>
  <path class="cls-2" d="M159.11,136.27v29.17c.52-.07,1.03-.15,1.54-.24v-29.48c-.51.2-1.02.38-1.54.55ZM158.94,40.59c-2.89-.41-5.84-.62-8.84-.62-34.82,0-63.05,28.23-63.05,63.05s28.23,63.05,63.05,63.05c1.11,0,2.2-.03,3.29-.09v-28.38c-1.65.24-3.34.36-5.06.36-19.3,0-34.94-15.65-34.94-34.94s15.64-34.94,34.94-34.94c3.7,0,7.27.57,10.61,1.64.58.18,1.15.38,1.72.6v-29.47c-.57-.1-1.14-.19-1.72-.27Z"/>
  <path class="cls-3" d="M229.78,124.69l-35.26,34.63s-4.13,5.4-10.8,5.88h-24.46V0h18.43s8.74,3.02,8.74,7.62v111.35l26.41-24.65,4.56-4.26,12.39,34.63Z"/>
  <path class="cls-1" d="M199.29,124.77V34.83s1.79-6.31,7.98-2.74l66.6,59.45s3.22,5.48-2.14,7.74l-22.4,2.62s-2.86,1.67.71,6.2l9.89,19.54s3.1,4.41.24,6.55l-15.13,8.7s-4.65,1.67-6.55-1.19l-12.75-23.35s-1.83-3.69-5.8.36l-12.55,8.82s-5.48,4.17-8.1-2.74Z"/>
  <g>
    <rect class="cls-1" x="220.05" y="6.04" width="6.43" height="24.62" rx="2.98" ry="2.98"/>
    <rect class="cls-1" x="250.53" y="32.53" width="6.43" height="25.32" rx="2.98" ry="2.98" transform="translate(298.94 -208.56) rotate(90)"/>
    <rect class="cls-1" x="242.11" y="9.38" width="6.43" height="29.87" rx="2.98" ry="2.98" transform="translate(77.25 -156.04) rotate(41.36)"/>
  </g>
  
  <!-- "click" text converted to paths (dark mode) -->
  <g class="cls-2">
    <path d="M24.56,187.45c-7.89,0-14.23-2.89-19.01-8.67C1.92,173,0,165.78,0,157.89s1.92-15.11,5.75-20.89c3.83-5.78,10.17-8.67,19.01-8.67c8.84,0,15.18,2.89,19.01,8.67c3.83,5.78,5.75,12.99,5.75,20.89s-1.92,15.11-5.75,20.89C39.94,184.56,33.6,187.45,24.56,187.45z M24.56,171.23c3.83,0,6.72-1.44,8.67-4.33c1.95-2.89,2.89-7.22,2.89-12.99s-0.94-10.1-2.89-12.99c-1.95-2.89-4.84-4.33-8.67-4.33s-6.72,1.44-8.67,4.33c-1.95,2.89-2.89,7.22-2.89,12.99s0.94,10.1,2.89,12.99C17.84,169.79,20.73,171.23,24.56,171.23z"/>
    <path d="M78.12,186.34V129.45h16.28v56.89H78.12z"/>
    <path d="M125.67,187.45c-7.89,0-14.23-2.89-19.01-8.67c-3.83-5.78-5.75-12.99-5.75-20.89s1.92-15.11,5.75-20.89c3.83-5.78,10.17-8.67,19.01-8.67c8.84,0,15.18,2.89,19.01,8.67c3.83,5.78,5.75,12.99,5.75,20.89s-1.92,15.11-5.75,20.89C140.85,184.56,134.51,187.45,125.67,187.45z M125.67,171.23c3.83,0,6.72-1.44,8.67-4.33c1.95-2.89,2.89-7.22,2.89-12.99s-0.94-10.1-2.89-12.99c-1.95-2.89-4.84-4.33-8.67-4.33s-6.72,1.44-8.67,4.33c-1.95,2.89-2.89,7.22-2.89,12.99s0.94,10.1,2.89,12.99C118.95,169.79,121.84,171.23,125.67,171.23z"/>
    <path d="M178.23,187.45c-7.89,0-14.23-2.89-19.01-8.67c-3.83-5.78-5.75-12.99-5.75-20.89s1.92-15.11,5.75-20.89c3.83-5.78,10.17-8.67,19.01-8.67c4.33,0,8.17,0.83,11.51,2.5c3.34,1.67,6.06,4.06,8.17,7.17l-12.99,8.17c-1.11-1.67-2.5-2.89-4.17-3.67c-1.67-0.78-3.5-1.17-5.5-1.17c-3.83,0-6.72,1.44-8.67,4.33c-1.95,2.89-2.89,7.22-2.89,12.99s0.94,10.1,2.89,12.99c1.95,2.89,4.84,4.33,8.67,4.33c2,0,3.83-0.39,5.5-1.17c1.67-0.78,3.06-2,4.17-3.67l12.99,8.17c-2.11,3.11-4.83,5.5-8.17,7.17C186.4,186.62,182.56,187.45,178.23,187.45z"/>
    <path d="M231.79,187.45c-7.89,0-14.23-2.89-19.01-8.67c-3.83-5.78-5.75-12.99-5.75-20.89s1.92-15.11,5.75-20.89c3.83-5.78,10.17-8.67,19.01-8.67c4.33,0,8.17,0.83,11.51,2.5c3.34,1.67,6.06,4.06,8.17,7.17l-12.99,8.17c-1.11-1.67-2.5-2.89-4.17-3.67c-1.67-0.78-3.5-1.17-5.5-1.17c-3.83,0-6.72,1.44-8.67,4.33c-1.95,2.89-2.89,7.22-2.89,12.99s0.94,10.1,2.89,12.99c1.95,2.89,4.84,4.33,8.67,4.33c2,0,3.83-0.39,5.5-1.17c1.67-0.78,3.06-2,4.17-3.67l12.99,8.17c-2.11,3.11-4.83,5.5-8.17,7.17C239.96,186.62,236.12,187.45,231.79,187.45z"/>
  </g>
  
  <!-- "bit" text converted to paths -->
  <g class="cls-3">
    <path d="M278.89,187.45c-7.89,0-14.23-2.89-19.01-8.67c-3.83-5.78-5.75-12.99-5.75-20.89V129.45h16.28v28.44c0,5.78,0.94,10.1,2.89,12.99c1.95,2.89,4.84,4.33,8.67,4.33s6.72-1.44,8.67-4.33c1.95-2.89,2.89-7.22,2.89-12.99V129.45h16.28v28.44c0,7.89-1.92,15.11-5.75,20.89C293.12,184.56,286.78,187.45,278.89,187.45z"/>
    <path d="M332.45,186.34V129.45h16.28v56.89H332.45z"/>
    <path d="M378,187.45c-4.33,0-8.17-0.83-11.51-2.5c-3.34-1.67-6.06-4.06-8.17-7.17l12.99-8.17c1.11,1.67,2.5,2.89,4.17,3.67c1.67,0.78,3.5,1.17,5.5,1.17c2,0,3.61-0.33,4.83-1c1.22-0.67,1.83-1.61,1.83-2.83c0-1.22-0.61-2.17-1.83-2.83c-1.22-0.67-2.83-1-4.83-1h-5.5v-13.61h5.5c2,0,3.61-0.33,4.83-1c1.22-0.67,1.83-1.61,1.83-2.83c0-1.22-0.61-2.17-1.83-2.83c-1.22-0.67-2.83-1-4.83-1c-2,0-3.83,0.39-5.5,1.17c-1.67,0.78-3.06,2-4.17,3.67l-12.99-8.17c2.11-3.11,4.83-5.5,8.17-7.17c3.34-1.67,7.17-2.5,11.51-2.5c7.89,0,14.23,2.89,19.01,8.67c3.83,5.78,5.75,12.99,5.75,20.89s-1.92,15.11-5.75,20.89C392.23,184.56,385.89,187.45,378,187.45z"/>
  </g>
  
  <!-- ".com.au" text converted to paths -->
  <g class="cls-1">
    <path d="M248.93,230.63c-1.95,0-3.5-0.78-4.67-2.33c-1.17-1.56-1.75-3.61-1.75-6.17s0.58-4.61,1.75-6.17c1.17-1.56,2.72-2.33,4.67-2.33s3.5,0.78,4.67,2.33c1.17,1.56,1.75,3.61,1.75,6.17s-0.58,4.61-1.75,6.17C252.43,229.85,250.88,230.63,248.93,230.63z"/>
    <path d="M270.15,230.63c-3.89,0-7.0-1.44-9.34-4.33c-2.33-2.89-3.5-6.72-3.5-11.5s1.17-8.61,3.5-11.5c2.33-2.89,5.44-4.33,9.34-4.33c2.11,0,4.0,0.39,5.67,1.17c1.67,0.78,3.0,1.89,4.0,3.33l-5.0,3.0c-0.67-0.89-1.44-1.56-2.33-2.0c-0.89-0.44-1.89-0.67-3.0-0.67c-1.89,0-3.33,0.67-4.33,2.0c-1.0,1.33-1.5,3.22-1.5,5.67s0.5,4.33,1.5,5.67c1.0,1.33,2.44,2.0,4.33,2.0c1.11,0,2.11-0.22,3.0-0.67c0.89-0.44,1.67-1.11,2.33-2.0l5.0,3.0c-1.0,1.44-2.33,2.56-4.0,3.33C274.15,230.24,272.26,230.63,270.15,230.63z"/>
    <path d="M298.71,230.63c-3.89,0-7.0-1.44-9.34-4.33c-2.33-2.89-3.5-6.72-3.5-11.5s1.17-8.61,3.5-11.5c2.33-2.89,5.44-4.33,9.34-4.33s7.0,1.44,9.34,4.33c2.33,2.89,3.5,6.72,3.5,11.5s-1.17,8.61-3.5,11.5C305.71,229.19,302.6,230.63,298.71,230.63z M298.71,223.8c1.89,0,3.33-0.67,4.33-2.0c1.0-1.33,1.5-3.22,1.5-5.67s-0.5-4.33-1.5-5.67c-1.0-1.33-2.44-2.0-4.33-2.0s-3.33,0.67-4.33,2.0c-1.0,1.33-1.5,3.22-1.5,5.67s0.5,4.33,1.5,5.67C295.38,223.13,296.82,223.8,298.71,223.8z"/>
    <path d="M327.27,230.63c-3.89,0-7.0-1.44-9.34-4.33c-2.33-2.89-3.5-6.72-3.5-11.5c0-4.78,1.17-8.61,3.5-11.5c2.33-2.89,5.44-4.33,9.34-4.33c2.11,0,4.0,0.39,5.67,1.17c1.67,0.78,3.0,1.89,4.0,3.33v-3.5h7.5v30.67h-7.5v-3.5c-1.0,1.44-2.33,2.56-4.0,3.33C331.27,230.24,329.38,230.63,327.27,230.63z M329.27,223.8c1.89,0,3.33-0.67,4.33-2.0c1.0-1.33,1.5-3.22,1.5-5.67s-0.5-4.33-1.5-5.67c-1.0-1.33-2.44-2.0-4.33-2.0s-3.33,0.67-4.33,2.0c-1.0,1.33-1.5,3.22-1.5,5.67s0.5,4.33,1.5,5.67C325.94,223.13,327.38,223.8,329.27,223.8z"/>
    <path d="M364.83,230.63c-3.89,0-7.0-1.44-9.34-4.33c-2.33-2.89-3.5-6.72-3.5-11.5s1.17-8.61,3.5-11.5c2.33-2.89,5.44-4.33,9.34-4.33c2.11,0,4.0,0.39,5.67,1.17c1.67,0.78,3.0,1.89,4.0,3.33v-3.5h7.5v30.67h-7.5v-3.5c-1.0,1.44-2.33,2.56-4.0,3.33C368.83,230.24,366.94,230.63,364.83,230.63z M366.83,223.8c1.89,0,3.33-0.67,4.33-2.0c1.0-1.33,1.5-3.22,1.5-5.67s-0.5-4.33-1.5-5.67c-1.0-1.33-2.44-2.0-4.33-2.0s-3.33,0.67-4.33,2.0c-1.0,1.33-1.5,3.22-1.5,5.67s0.5,4.33,1.5,5.67C363.5,223.13,364.94,223.8,366.83,223.8z"/>
  </g>
</svg> 